<?xml version="1.0" encoding="utf-8"?>
<!-- Generator: Adobe Illustrator 22.0.0, SVG Export Plug-In . SVG Version: 6.00 Build 0)  -->
<svg version="1.1" id="Layer_1" xmlns="http://www.w3.org/2000/svg" xmlns:xlink="http://www.w3.org/1999/xlink" x="0px" y="0px"
	 viewBox="0 0 1080 1080" style="enable-background:new 0 0 1080 1080;" xml:space="preserve">
<style type="text/css">
	.st0{fill:#EDEDED;}
</style>
<g>
	<g>
		<path class="st0" d="M389.2,910.1c0,53.5-36,89.2-88,89.2s-88-35.7-88-89.2c0-53.5,36-89.2,88-89.2S389.2,856.6,389.2,910.1z
			 M370.4,910.1c0-49.1-27.7-81.8-69.3-81.8c-41.6,0-69.3,32.7-69.3,81.8c0,49.1,27.7,81.8,69.3,81.8
			C342.7,992,370.4,959.2,370.4,910.1z"/>
		<path class="st0" d="M581.9,910.2c0,51.4-35.7,85.7-88,85.7H411l0-2.4l3.1,0c8.6,0,15.5-6.9,15.7-15.4V840.8
			c-0.8-7.9-7.5-14-15.6-14l-3.1,0l0-2.4h82.8C546.2,824.4,581.9,858.7,581.9,910.2z M493.9,988.4c42,0,69.6-31.3,69.6-78.2
			c0-47.1-27.9-78.4-69.6-78.4h-48.1v156.6L493.9,988.4L493.9,988.4z"/>
		<path class="st0" d="M657.4,995.9h-53.6l0-2.4l3.1,0c8.6,0,15.5-6.9,15.7-15.4V842.1c-0.2-8.5-7.1-15.3-15.7-15.3l-3.1,0l0-2.4
			h19.5v0h14.5v0h19.5l0,2.4l-3.1,0c-8.5,0-15.4,6.8-15.7,15.3V978c0.2,8.5,7.1,15.4,15.7,15.4l3.1,0L657.4,995.9z"/>
		<path class="st0" d="M866.9,826.8c0,0-4.5,0-4.5,0c-8.2,0-14.9,6.5-15.1,14.6V968c0,15.8,2.2,31.3,2.2,31.3h-2.2L713.5,856.8
			l0.1,122c0.3,8.1,6.9,14.7,15.1,14.7c0,0,4.5,0,4.5,0l0,2.4h-50.5l0-2.4c0,0,4.5,0,4.5,0c8.3,0,15-6.6,15.1-14.8V851.3
			c0-16.7-2.3-30.6-2.3-30.6h2.4l0.2,0.2l133.2,142.2l0-121.5h0c-0.2-8.2-6.9-14.8-15.1-14.8l-4.5,0l0-2.5h50.5L866.9,826.8z"/>
	</g>
	<g>
		<path class="st0" d="M503.5,535.9c-0.5,6.8-19.5,15.9-27.9,15.9c-8.4,0-14.4-12.8-14.4-19.6c0-6.8,3-15.8,11.4-16.5
			C481.6,514.9,504,528.4,503.5,535.9z"/>
		<path class="st0" d="M414,609.1c0,0,81.9,117.6,89,134.7c-2.8-15.5-16.1-114.7-16.8-150.3l-31.3-22.6l-16.6-81.6
			c-0.1-2.5-0.1-5-0.2-7.5l79.4,22.2l13,41.7h7.3h2.7h7.3l13-41.7l80.8-22.6l-18.3,89.5l-31.3,22.6c-0.8,35.7-14,134.8-16.8,150.3
			c7.1-17.1,89-134.7,89-134.7l-4.3-20.7c-0.6-2.7-1.1-5.6-1.5-8.6c11.6-19.7,32.9-53.1,56.6-78.4l-10-7.3
			c4.9,1.3,16.8-3.4,40.1-54.2h-30.1c0,0,35.9-23.2,41.7-37.1h-24c0,0,33.9-20,48.7-60h-16.6l25.2-55.3l-8.6-34.3l-58.3,74.2
			l51.1-105.5l-22.6-42.9l-2.3,45.2l-28.4,49.8l19.7-48.1l5.2-64.9l-26.7-41.1l-9.3,91l-2.3-104.9l-22-25.5
			c0,0,36.5,159.9-36.5,272.3c0,0-1.4,18.1-3.1,44.4c-12-23-37.7-55.5-89.7-67.3c0,0,28.4,2.3-16.2-55c-44.6,57.4-17.4,55-17.4,55
			c-50.7,11.5-76.3,42.6-88.8,65.5c-1.6-25.4-2.9-42.7-2.9-42.7c-73-112.4-36.5-272.3-36.5-272.3l-22,25.5l-2.3,104.9l-9.3-91
			l-26.7,41.1l5.2,64.9l19.7,48.1l-28.4-49.8l-2.3-45.2l-22.6,42.9l51.1,105.5l-58.3-74.2l-8.6,34.3l25.2,55.3h-16.6
			c14.8,40,48.7,60,48.7,60h-24c5.8,13.9,41.7,37.1,41.7,37.1h-30.1c23.3,50.7,35.2,55.5,40.1,54.2l-10,7.3
			c23.9,25.5,45.3,59.2,56.9,78.9L414,609.1z"/>
	</g>
</g>
</svg>
