<?xml version="1.0" encoding="UTF-8" standalone="no"?>
<!-- Generator: Adobe Illustrator 22.0.0, SVG Export Plug-In . SVG Version: 6.00 Build 0)  -->

<svg
   version="1.1"
   id="Layer_1"
   x="0px"
   y="0px"
   viewBox="0 0 1080 1080"
   xml:space="preserve"
   style="enable-background:new 0 0 1080 1080;"
   sodipodi:docname="favicon.svg"
   inkscape:version="1.3.2 (091e20ef0f, 2023-11-25)"
   xmlns:inkscape="http://www.inkscape.org/namespaces/inkscape"
   xmlns:sodipodi="http://sodipodi.sourceforge.net/DTD/sodipodi-0.dtd"
   xmlns="http://www.w3.org/2000/svg"
   xmlns:svg="http://www.w3.org/2000/svg"><sodipodi:namedview
   id="namedview1"
   pagecolor="#ffffff"
   bordercolor="#000000"
   borderopacity="0.25"
   inkscape:showpageshadow="2"
   inkscape:pageopacity="0.0"
   inkscape:pagecheckerboard="0"
   inkscape:deskcolor="#d1d1d1"
   inkscape:zoom="0.3875"
   inkscape:cx="541.93548"
   inkscape:cy="776.77419"
   inkscape:window-width="1888"
   inkscape:window-height="1008"
   inkscape:window-x="0"
   inkscape:window-y="0"
   inkscape:window-maximized="1"
   inkscape:current-layer="g8" /><defs
   id="defs8" />
<style
   type="text/css"
   id="style1">
	.st0{fill:#262E2D;}
	.st1{fill:#FFFFFF;}
	.st2{fill:#EDEDED;}
</style>
<g
   id="g1"
   style="stroke:none;stroke-width:0.916767"
   transform="matrix(1.0907902,0,0,1.0907902,-49.026711,-49.026711)">
	<rect
   x="0.5"
   y="0.5"
   class="st0"
   width="1079"
   height="1079"
   id="rect1"
   style="stroke:none;stroke-width:0.916767" />
	<path
   class="st1"
   d="M 1079,1 V 1079 H 1 V 1 h 1078 m 1,-1 H 0 v 1080 h 1080 z"
   id="path1"
   style="stroke:none;stroke-width:0.916767" />
</g>
<g
   id="g8">
	
	<g
   id="g7"
   transform="matrix(1.2479082,0,0,1.2479082,-133.80803,25.737031)"
   style="stroke-width:0.801341">
		<path
   class="st2"
   d="m 503.5,535.9 c -0.5,6.8 -19.5,15.9 -27.9,15.9 -8.4,0 -14.4,-12.8 -14.4,-19.6 0,-6.8 3,-15.8 11.4,-16.5 9,-0.8 31.4,12.7 30.9,20.2 z"
   id="path6"
   style="stroke-width:0.801341" />
		<path
   class="st2"
   d="m 414,609.1 c 0,0 81.9,117.6 89,134.7 -2.8,-15.5 -16.1,-114.7 -16.8,-150.3 l -31.3,-22.6 -16.6,-81.6 c -0.1,-2.5 -0.1,-5 -0.2,-7.5 l 79.4,22.2 13,41.7 h 7.3 2.7 7.3 l 13,-41.7 80.8,-22.6 -18.3,89.5 -31.3,22.6 c -0.8,35.7 -14,134.8 -16.8,150.3 7.1,-17.1 89,-134.7 89,-134.7 l -4.3,-20.7 c -0.6,-2.7 -1.1,-5.6 -1.5,-8.6 11.6,-19.7 32.9,-53.1 56.6,-78.4 l -10,-7.3 c 4.9,1.3 16.8,-3.4 40.1,-54.2 H 715 c 0,0 35.9,-23.2 41.7,-37.1 h -24 c 0,0 33.9,-20 48.7,-60 h -16.6 l 25.2,-55.3 -8.6,-34.3 -58.3,74.2 51.1,-105.5 -22.6,-42.9 -2.3,45.2 -28.4,49.8 19.7,-48.1 5.2,-64.9 -26.7,-41.1 -9.3,91 -2.3,-104.9 -22,-25.5 c 0,0 36.5,159.9 -36.5,272.3 0,0 -1.4,18.1 -3.1,44.4 -12,-23 -37.7,-55.5 -89.7,-67.3 0,0 28.4,2.3 -16.2,-55 -44.6,57.4 -17.4,55 -17.4,55 -50.7,11.5 -76.3,42.6 -88.8,65.5 -1.6,-25.4 -2.9,-42.7 -2.9,-42.7 C 357.9,240.3 394.4,80.4 394.4,80.4 l -22,25.5 -2.3,104.9 -9.3,-91 -26.7,41.1 5.2,64.9 19.7,48.1 -28.4,-49.8 -2.3,-45.2 -22.6,42.9 51.1,105.5 -58.3,-74.2 -8.6,34.3 25.2,55.3 h -16.6 c 14.8,40 48.7,60 48.7,60 h -24 c 5.8,13.9 41.7,37.1 41.7,37.1 h -30.1 c 23.3,50.7 35.2,55.5 40.1,54.2 l -10,7.3 c 23.9,25.5 45.3,59.2 56.9,78.9 z"
   id="path7"
   style="stroke-width:0.801341" />
	</g>
</g>
</svg>
